**ABCDEFGHIJKLMNOPQRSTUVWXYZabcdefghijklmnopqrstuvwxyz**************************
**PARASOLID !"#$%&'()*+,-./:;<=>?@[\]^_`{|}~0123456789**************************
**PART1;
MC=AMD64;
MC_MODEL=Intel64 Family 6 Model 170 Stepping 4, GenuineIntel;
MC_ID=unknown;
OS=Windows_NT;
OS_RELEASE=unknown;
FRU=Parasolid Version 35.1, build 256,  4-22-2024;
APPL=SOLIDWORKS 2024-2024282;
SITE=;
USER=unknown;
FORMAT=text;
GUISE=transmit;
KEY=makeProjectedPlanarWire;
FILE=makeProjectedPlanarWire.x_t;
DATE=Fri Jun 13 22:01:54 2025;
**PART2;
SCH=SCH_3501256_35102;
USFLD_SIZE=0;
**PART3;
**END_OF_HEADER*****************************************************************
T51 : TRANSMIT FILE created by modeller version 350125623 SCH_3501256_35102_1300
6231 0 12 36 CCCI7 lattice222 0 CCCI4 mesh1006 0 I8 polyline1008 0 CCCCCCCDI5 ow
ner1040 0 CCCI16 boundary_lattice222 0 CCCI13 boundary_mesh1006 0 I17 boundary_p
olyline1008 0 CCCA16 index_map_offset0 0 1 dA9 index_map82 0 A17 node_id_index_m
ap82 0 A20 schema_embedding_map82 0 A5 child12 0 A14 lowest_node_id0 0 1 dA16 me
sh_offset_data206 0 Z1 84 2 3 0 0 0 0 0 0 0 1e3 1e-8 0 4 0 1 0 3 1 5 0 6 7 8 0 0
 9 10 11 0 0 0 0 0 0 0 81 255 2 2 73 12 1 0 0 0 0 13 0 70 11 CI9 list_type0 0 1
 uI10 notransmit0 0 1 lCCCDCCDI12 finger_index0 0 1 dI12 finger_block1012 0 CZ3
 0 4 T1 0 0 2 20 1 14 14 13 255 5 80 0 1 0 15 0 0 9 15 50 255 6 3 0 15 0 0 0 +0
 -.0036 0 0 1 0 0 0 1 31 255 7 41 0 10 16 0 0 +-.01262 -.0036 3469446951953615e-
33 0 1 0 0 0 1 .009 29 255 8 71 0 11 17 0 -.01737294305792445 -.0036 .0076426129
2282475 19 9 CCCCCCI5 frame230 0 CA5 owner12 0 Z9 79 0 1 0 0 5 0 V0 16 255 10 39
 0 ?18 0 19 7 0 0 1 18 255 11 69 0 20 0 21 8 ?1 17 255 20 0 0 0 0 11 22 23 0 24
 +18 21 66 0 25 11 26 17 ?1 17 25 0 27 24 28 21 29 19 0 18 -18 26 63 0 28 21 30
 31 ?1 29 17 68 0 21 31 8 -.01262 -.0036 .009 29 31 65 0 26 32 17 .01262 -.0036
 .009 29 32 62 0 30 33 31 .0140889880304679 -.0036 .00887930595071158 18 30 60 0
 34 26 35 32 ?1 29 33 59 0 35 36 32 .03197932535364525 -.0036 .00591953730047439
 18 35 57 0 37 30 38 33 ?1 29 36 56 0 38 39 33 .03197932535364525 -.0036 -.00591
953730047439 18 38 54 0 40 35 41 36 ?1 29 39 53 0 41 42 36 .0140889880304679 -.0
036 -.00887930595071158 18 41 51 0 43 38 44 39 ?1 29 42 50 0 44 45 39 .01262 -.0
036 -.009 18 44 48 0 46 41 47 42 ?1 29 45 47 0 47 48 42 -.024 -.0036 -.009 18 47
 45 0 49 44 50 45 ?1 29 48 44 0 50 0 45 -.0270366025092295 -.0036 .0016327804784
71365 18 50 42 0 22 47 0 48 ?1 17 22 0 27 49 24 50 20 23 0 51 -15 255 27 8 0 22
 15 0 17 49 0 27 46 22 47 51 52 0 53 +17 24 0 27 22 25 11 18 10 0 0 -16 23 12 0
 ?20 52 54 55 0 0 1 17 51 0 0 0 0 50 49 52 0 0 -16 52 15 0 ?49 56 23 57 0 0 1 16
 56 18 0 ?46 58 52 59 0 0 1 31 57 17 0 52 55 59 0 --.024 -.0036 -.00325 0 1 0 0
 0 1 .00575 30 255 55 14 0 23 60 57 0 +-.00827259370636681 -.0036 .0133021226627
4582 .849179213647193 0 .52810478421383 30 59 20 0 56 57 61 0 +-1237124507431954
e-33 -.0036 -.009 1 0 -1374582786035504e-31 31 61 23 0 58 59 62 0 -.01262 -.0036
 0 0 1 0 0 0 1 .009 16 58 21 0 ?43 63 56 61 0 0 1 30 62 26 0 63 61 64 0 +.001805
198203563745 -.0036 -.01091153012731622 .986589550079064 0 .163220892274211 16 6
3 24 0 ?40 65 58 62 0 0 1 31 64 29 0 65 62 66 0 -.031 -.0036 0 0 1 0 0 0 1 .006
 16 65 27 0 ?37 67 63 64 0 0 1 30 66 32 0 67 64 68 0 +.001805198203563745 -.0036
 .01091153012731622 .986589550079064 0 -.163220892274211 16 67 30 0 ?69 70 65 66
 0 0 1 31 68 35 0 70 66 16 0 +.01262 -.0036 0 0 1 0 0 0 1 .009 16 70 33 0 ?71 19
 67 68 0 0 1 30 16 38 0 19 68 7 0 +0 -.0036 .009 1 0 0 16 19 36 0 ?29 10 70 16 0
 0 1 17 29 0 0 0 0 26 25 19 0 0 +17 71 0 0 0 0 30 28 70 0 0 +17 28 0 27 25 34 26
 71 70 0 29 -17 34 0 27 28 37 30 69 67 0 71 -17 37 0 27 34 40 35 72 65 0 69 +17
 69 0 0 0 0 35 34 67 0 0 +17 40 0 27 37 43 38 73 63 0 72 +17 72 0 0 0 0 38 37 65
 0 0 -17 43 0 27 40 46 41 74 58 0 73 +17 73 0 0 0 0 41 40 63 0 0 -17 46 0 27 43
 49 44 53 56 0 74 +17 74 0 0 0 0 44 43 58 0 0 -17 53 0 0 0 0 47 46 56 0 0 -31 60
 11 0 54 0 55 0 --.01262 -.0036 3469446951953615e-33 0 1 0 0 0 1 .00625 16 54 9
 0 ?75 23 0 60 0 0 1 17 75 0 0 0 0 0 76 54 0 0 +17 76 0 77 76 76 0 75 54 0 0 -15
 77 7 0 76 15 27 14 255 15 1 78 ?0 0 77 5 6 -0 0 0 0 5 81 1 78 84 79 15 0 0 0 0
 80 80 7 CCCCCDI12 legal_owners0 16 1 lCZ1 79 81 82 9000 1 1 1 1 1 1 1 1 0 FFFFT
FTFFFFFFFFF1 82 255 1 80 1036517701 79 255 14 82 SWEntUnchanged17 18 0 0 0 0 21
 24 10 0 0 +74 4 CI16 index_map_offset0 0 1 dCCZ20 14 2 0 0 2 78 0 0 0 0 0 0 0 0
 0 0 0 0 0 0 0 0 0 0 80 2 12 83 84 9000 0 0 0 0 3 5 0 0 0 FFTFTTTFFTFFFFFF10 10
 98 255 13 13 66 111 115 115 45 69 120 116 114 117 100 101 49 79 23 84 SWIMPLICI
TBODYNAME_ID_U1 0 
